<svg xmlns="http://www.w3.org/2000/svg" enable-background="new 0 0 512 512" viewBox="0 0 512 512"><path fill="#c4c1ab" d="M224.2,70.3l-38.5-38.5l-88.5,88.5c-10.6,10.6-10.6,27.9,0,38.5l0,0
			c10.6,10.6,27.9,10.6,38.5,0L224.2,70.3z"/><polygon fill="#ebeadf" points="203.7 49.7 185.7 31.8 160.4 57.1 184.7 68.7"/><path fill="#c4c1ab" d="M483.3,319.9l-38.5-38.5l-88.5,88.5c-10.6,10.6-10.6,27.9,0,38.5l0,0
			c10.6,10.6,27.9,10.6,38.5,0L483.3,319.9z"/><polygon fill="#ebeadf" points="464.5 301.2 444.7 281.4 425.1 301.1 441 323.8"/><polygon fill="#68a1d6" points="128 328 31 328 5 348.9 103.1 408.9 156.8 507 184 481 184 384 184 328"/><polygon fill="#3179af" points="103.1 408.9 184 328 184 481 156.8 507"/><polygon fill="#68a1d6" points="59.5 5 5 47.9 256 256 464.1 507 507 452.5 332 180"/><polygon fill="#3179af" points="507 452.5 332 180 256 256 464.1 507"/><path fill="#ebeadf" d="M472.6,136.7C494.6,116,507,87.2,507,57v0V35c0-16.6-13.4-30-30-30l-22,0h0
			c-30.2,0-59,12.4-79.7,34.4l-246,260.8C94.4,337.2,75,386.2,75,437v0h0c50.9,0,99.8-19.4,136.8-54.3L472.6,136.7z"/><path fill="#c4c1ab" d="M477,5h-5v17h0.2c0,31-12.3,59.2-34.3,79.9L177.2,348c-27.6,26-61.8,43.5-98.6,50.7
			C76.2,411.3,75,424.1,75,437l0,0l0,0c50.9,0,99.8-19.4,136.8-54.3l260.8-246C494.6,116,507,87.2,507,57V35C507,18.4,493.6,5,477,5
			z"/><path fill="#ebeadf" d="M172.5,387l271.7-271.7c13.1-13.1,13.1-34.4,0-47.5l0,0c-13.1-13.1-34.4-13.1-47.5,0
			L125,339.5c-13.1,13.1-13.1,34.4,0,47.5l0,0C138.1,400.1,159.4,400.1,172.5,387z"/><polygon fill="#68a1d6" points="75.6 457.6 54.4 457.6 54.4 436.4 117.4 373.4 140.7 371.3 138.6 394.6"/><polygon fill="#3179af" points="138.6 394.8 140.7 371.6 54.4 458 75.6 458"/><path fill="#68a1d6" d="M444.1,122.5l-7.1-7.1l3.7-3.7c5.4-5.4,8.4-12.6,8.4-20.2s-3-14.8-8.4-20.2
				c-5.4-5.4-12.6-8.4-20.2-8.4s-14.8,3-20.2,8.4l-3.7,3.7l-7.1-7.1l3.7-3.7c15.1-15.1,39.5-15.1,54.6,0s15.1,39.5,0,54.6
				L444.1,122.5z"/><path fill="#060d1a" d="M444.1 122.5l-7.1-7.1 3.7-3.7c5.4-5.4 8.4-12.6 8.4-20.2s-3-14.8-8.4-20.2c-5.4-5.4-12.6-8.4-20.2-8.4s-14.8 3-20.2 8.4l-3.7 3.7-7.1-7.1 3.7-3.7c15.1-15.1 39.5-15.1 54.6 0s15.1 39.5 0 54.6L444.1 122.5zM75.6 462.6H54.4c-2.8 0-5-2.2-5-5v-21.3c0-1.3.5-2.6 1.5-3.5l63-63c.8-.8 1.9-1.3 3.1-1.4l23.3-2c1.5-.1 2.9.4 4 1.4 1 1 1.6 2.5 1.4 4l-2 23.3c-.1 1.2-.6 2.3-1.4 3.1l-63 63C78.2 462.1 77 462.6 75.6 462.6zM59.4 452.6h14.2l60.2-60.2 1.4-15.5-15.5 1.4-60.2 60.2V452.6zM464.1 512c-1.5 0-2.9-.7-3.8-1.8L291.7 306.9l7.7-6.4L464 499l36.9-46.8L363.5 238.3l8.4-5.4 139.3 216.9c1.2 1.8 1 4.1-.3 5.8L468 510.1C467.1 511.3 465.7 512 464.1 512 464.1 512 464.1 512 464.1 512zM189.4 207.3L1.8 51.7c-1.2-1-1.8-2.4-1.8-3.9 0-1.5.7-2.9 1.9-3.9L56.4 1.1c1.7-1.3 4-1.4 5.8-.3l216.9 139.3-5.4 8.4L59.8 11.1 13 48l182.8 151.6L189.4 207.3z"/><path fill="#060d1a" d="M203.1 98.5l-7.1-7.1 21.1-21.1-31.4-31.4-29.5 29.5-7.1-7.1 33.1-33.1c.9-.9 2.2-1.5 3.5-1.5s2.6.5 3.5 1.5l38.5 38.5c.9.9 1.5 2.2 1.5 3.5s-.5 2.6-1.5 3.5L203.1 98.5zM116.5 171.7c-8.3 0-16.5-3.1-22.8-9.4-11.6-11.6-12.6-30-2.5-42.8l7.8 6.2c-7 8.8-6.3 21.5 1.7 29.5 8.7 8.7 22.8 8.7 31.4 0l1.3-1.3 7.1 7.1-1.3 1.3C133 168.6 124.8 171.7 116.5 171.7zM449.4 360.8l-7.1-7.1 33.9-33.9-31.4-31.4-25.4 25.4-7.1-7.1 29-29c.9-.9 2.2-1.5 3.5-1.5s2.6.5 3.5 1.5l38.5 38.5c.9.9 1.5 2.2 1.5 3.5s-.5 2.6-1.5 3.5L449.4 360.8zM375.6 421.3c-8.4 0-16.7-3.3-22.9-9.4-11.2-11.2-12.6-28.6-3.5-41.4l8.2 5.8c-6.3 8.9-5.3 20.9 2.4 28.6 6.5 6.5 16.6 8.4 25 4.5l4.2 9.1C384.7 420.4 380.1 421.3 375.6 421.3zM156.8 512c-.3 0-.5 0-.8-.1-1.5-.2-2.9-1.2-3.6-2.5l-40.6-74.3 8.8-4.8 37.5 68.6 21-20V425h10v56c0 1.4-.6 2.7-1.5 3.6l-27.2 26C159.3 511.5 158 512 156.8 512zM77 398.7L2.4 353.1c-1.4-.8-2.3-2.3-2.4-3.9s.6-3.2 1.9-4.2l26-20.9c.9-.7 2-1.1 3.1-1.1h76v10H32.8l-19.1 15.3 68.5 41.9L77 398.7z"/><path fill="#060d1a" d="M98.1,440.7l-1.1-9.9c41.5-4.7,81-23.1,111.4-51.7l260.8-246C490,113.4,502,85.7,502,57V35
				c0-13.8-11.2-25-25-25h-22c-28.7,0-56.4,12-76,32.8L133,303.6c-28.6,30.4-47,69.9-51.7,111.4l-9.9-1.1
				c5-43.6,24.3-85.2,54.4-117.1l246-260.8C393.2,13.1,423.6,0,455,0h22c19.3,0,35,15.7,35,35v22c0,31.4-13.1,61.8-35.9,83.3
				l-260.8,246C183.3,416.4,141.7,435.8,98.1,440.7z"/></svg>