<?xml version="1.0" encoding="utf-8"?>
<!-- Generator: Adobe Illustrator 24.0.1, SVG Export Plug-In . SVG Version: 6.00 Build 0)  -->
<svg version="1.1" id="Camada_1" xmlns="http://www.w3.org/2000/svg" xmlns:xlink="http://www.w3.org/1999/xlink" x="0px" y="0px"
	 viewBox="0 0 560 288" style="enable-background:new 0 0 560 288;" xml:space="preserve">
<style type="text/css">
	.st0{fill:#073673;}
</style>
<path class="st0" d="M162.24,59.07c18.65-19.5,72.59-1.73,77.68,0c9.49,3.22,13.55,5.85,22.55,6.26
	c5.82,0.27,15.83-0.28,43.85-15.04c23.82-12.54,25.4-16.77,40.09-21.3c12.42-3.83,22.95-7.07,33.83-2.51
	c17.27,7.24,23.08,28.95,25.06,36.34c3.04,11.34,0.16,11.53,2.51,22.55c4.99,23.42,18.89,26.89,31.32,56.38
	c5.43,12.89,8.14,19.33,6.26,26.31c-5.04,18.73-34.6,27.97-53.88,30.07c-22.44,2.44-25.61-5.37-40.09,0
	c-10.18,3.78-19.88,15.1-38.84,37.59c-15.81,18.75-17.99,23.53-26.31,26.31c-12.18,4.07-27.28,0.46-37.59-7.52
	c-18.26-14.13-9.2-32.46-27.56-48.86c-12.93-11.55-30.04-13.75-40.09-15.04c-17.59-2.26-20.97,2.49-38.84,0
	c-13.56-1.89-31.24-4.35-37.85-16.23c-9.38-16.85,7.1-46.1,25.33-60.2c7.61-5.89,9.83-4.73,15.55-10.63
	C161.14,87.13,151.01,70.82,162.24,59.07z"/>
</svg>
