<svg xmlns="http://www.w3.org/2000/svg" enable-background="new 0 0 500 421" viewBox="0 0 500 421"><path fill="#cce9ff" d="M282.929,58.162c6.118,2.655,11.852,5.597,17.049,8.732c18.172,10.954,32.79,26.902,50.647,37.889
			c16.862,10.374,37.454,12.896,56.749,14.63c33.633,3.023,103.781,32.013,91.115,85.744c-4.608,19.554-20.858,32.834-29.178,50.541
			c-8.85,18.836-7.921,42.329-22.012,58.658c-6.199,7.18-14.756,11.922-23.541,15.514c-58.465,23.898-124.121,22.787-186.114,20.153
			c-48.931-2.079-127.521,8.91-170.5-17.924c-21.338-13.323-10.242-49.742-25.007-69.303
			c-12.407-16.437-29.293-27.233-37.588-47.808c-14.116-35.01,6.005-80.571,41.235-92.999c22.015-7.766,45.338-11.324,67.1-19.853
			c22.483-8.815,31.146-22.018,48.292-37.645C192.173,36.245,244.929,41.666,282.929,58.162z"/><path fill="#d3d3d3" d="M337.076,336.726H167.365V230.59c0-2.006,1.596-3.631,3.564-3.631h162.583
					c1.969,0,3.564,1.625,3.564,3.631V336.726z"/><rect width="157.29" height="93.595" x="173.577" y="234.649" fill="#f2f2f2"/><path fill="#d3d3d3" d="M140.374,368.32c-1.56,2.04,1.421,8.133,6.096,8.133c71.711,0,143.42,0,215.129,0
					c4.672,0,7.615-6.093,5.826-8.133H140.374z"/><path fill="#f2f2f2" d="M366.825,367.205c1.789,2.037-0.554,3.69-5.225,3.69c-71.709,0-143.419,0-215.129,0
					c-4.675,0-7.199-1.653-5.639-3.69c7.342-9.601,14.684-19.198,22.025-28.797c1.56-2.039,5.642-3.691,9.12-3.691
					c53.349,0,106.701,0,160.051,0c3.474,0,7.746,1.652,9.535,3.691C349.981,348.01,358.405,357.604,366.825,367.205z"/><g opacity=".5"><path fill="#d3d3d3" d="M188.61 344.43c-2.907 0-4.358 0-7.266 0 1.028-1.522 1.543-2.285 2.569-3.808 2.792 0 4.186 0 6.979 0C189.98 342.145 189.523 342.906 188.61 344.43zM198.027 344.43c-2.904 0-4.358 0-7.266 0 .88-1.522 1.32-2.285 2.198-3.808 2.792 0 4.186 0 6.977 0C199.173 342.145 198.791 342.908 198.027 344.43zM195.018 339.893c-4.243 0-6.364 0-10.607 0 .382-.568.574-.852.958-1.421 4.18 0 6.264 0 10.446 0C195.495 339.041 195.336 339.325 195.018 339.893zM207.45 339.894c-4.244 0-6.367-.001-10.61-.001.306-.568.459-.852.767-1.421 4.177 0 6.268 0 10.446 0C207.813 339.041 207.69 339.325 207.45 339.894zM219.883 339.893c-4.244 0-6.367 0-10.611 0 .229-.568.345-.852.574-1.421 4.179 0 6.27 0 10.451 0C220.131 339.041 220.048 339.325 219.883 339.893zM232.314 339.893c-4.244 0-6.365 0-10.608 0 .153-.568.228-.852.381-1.421 4.18 0 6.272 0 10.448 0C232.449 339.041 232.404 339.325 232.314 339.893zM244.748 339.893c-4.244 0-6.366 0-10.611 0 .078-.568.115-.852.193-1.421 4.179 0 6.267 0 10.445 0C244.764 339.041 244.759 339.325 244.748 339.893zM257.18 339.893c-4.243 0-6.362 0-10.608 0 0-.568 0-.852 0-1.421 4.179 0 6.266 0 10.445 0C257.083 339.041 257.112 339.325 257.18 339.893zM269.614 339.893c-4.243 0-6.367 0-10.61 0-.077-.568-.116-.852-.194-1.421 4.18 0 6.269 0 10.449 0C269.399 339.041 269.471 339.325 269.614 339.893zM282.048 339.893c-4.246 0-6.366 0-10.611 0-.153-.568-.231-.852-.384-1.421 4.179 0 6.267 0 10.446 0C281.72 339.041 281.829 339.325 282.048 339.893zM294.481 339.893c-4.246 0-6.366 0-10.61 0-.233-.568-.348-.852-.58-1.421 4.18 0 6.271 0 10.451 0C294.038 339.041 294.185 339.325 294.481 339.893zM306.911 339.893c-4.246 0-6.366 0-10.608 0-.307-.568-.462-.852-.767-1.421 4.177 0 6.264 0 10.443 0C306.351 339.041 306.537 339.325 306.911 339.893zM320.784 339.893c-4.818 0-7.228 0-12.048 0-.384-.568-.577-.852-.961-1.421 4.745 0 7.116 0 11.864 0C320.096 339.041 320.327 339.325 320.784 339.893zM207.44 344.43c-2.906 0-4.358 0-7.264 0 .73-1.522 1.097-2.284 1.825-3.806 2.792 0 4.186-.002 6.977-.002C208.364 342.147 208.056 342.906 207.44 344.43zM216.855 344.43c-2.904 0-4.358 0-7.265 0 .583-1.522.873-2.285 1.457-3.808 2.791 0 4.187.002 6.977.002C217.557 342.147 217.323 342.908 216.855 344.43zM226.272 344.43c-2.906 0-4.358 0-7.264 0 .434-1.524.652-2.284 1.084-3.808 2.791 0 4.185 0 6.977 0C226.751 342.145 226.589 342.908 226.272 344.43zM235.687 344.43c-2.908 0-4.36 0-7.264 0 .284-1.522.424-2.287.711-3.808 2.791 0 4.187 0 6.979 0C235.941 342.145 235.854 342.908 235.687 344.43zM245.097 344.43c-2.903 0-4.355 0-7.258 0 .136-1.522.204-2.287.34-3.808 2.79 0 4.185 0 6.975 0C245.133 342.145 245.122 342.908 245.097 344.43zM254.517 344.43c-2.906 0-4.358 0-7.264 0-.011-1.522-.016-2.285-.028-3.808 2.789 0 4.187 0 6.975 0C254.328 342.145 254.391 342.908 254.517 344.43zM263.931 344.43c-2.905 0-4.357 0-7.261 0-.159-1.522-.239-2.285-.398-3.808 2.789 0 4.183 0 6.972 0C263.52 342.145 263.656 342.908 263.931 344.43zM273.344 344.43c-2.906 0-4.357 0-7.262 0-.307-1.522-.462-2.285-.771-3.808 2.791 0 4.185 0 6.977 0C272.709 342.145 272.921 342.908 273.344 344.43zM185.567 349.506c-3.059 0-4.586 0-7.643 0 1.026-1.522 1.538-2.284 2.564-3.807 2.946 0 4.417 0 7.361 0C186.936 347.222 186.479 347.983 185.567 349.506zM195.48 349.506c-3.06 0-4.586 0-7.646 0 .88-1.522 1.32-2.284 2.198-3.807 2.943 0 4.416 0 7.361 0C196.626 347.221 196.242 347.983 195.48 349.506zM205.389 349.506c-3.06 0-4.587 0-7.646 0 .73-1.522 1.093-2.284 1.825-3.807 2.943 0 4.414 0 7.358 0C206.311 347.222 206.002 347.983 205.389 349.506zM215.299 349.506c-3.059 0-4.589 0-7.648 0 .582-1.522.874-2.284 1.454-3.807 2.946 0 4.417 0 7.362 0C215.999 347.222 215.765 347.983 215.299 349.506zM225.21 349.506c-3.057 0-4.589 0-7.645 0 .434-1.522.649-2.284 1.082-3.804 2.945 0 4.414-.003 7.359-.003C225.685 347.222 225.528 347.983 225.21 349.506zM235.116 349.506c-3.059 0-4.586 0-7.645 0 .285-1.522.427-2.284.713-3.807 2.943 0 4.414 0 7.358 0C235.373 347.221 235.286 347.983 235.116 349.506zM245.024 349.506c-3.057 0-4.584 0-7.642 0 .136-1.522.206-2.284.342-3.807 2.942 0 4.413 0 7.354 0C245.057 347.222 245.046 347.983 245.024 349.506zM254.936 349.506c-3.057 0-4.586 0-7.645 0-.011-1.522-.016-2.284-.028-3.807 2.943 0 4.414 0 7.358 0C254.746 347.222 254.812 347.983 254.936 349.506zM264.844 349.506c-3.055 0-4.583 0-7.641 0-.161-1.522-.242-2.284-.399-3.807 2.942 0 4.413 0 7.354 0C264.433 347.222 264.57 347.983 264.844 349.506zM274.753 349.506c-3.057 0-4.587 0-7.643 0-.309-1.522-.465-2.284-.772-3.807 2.943 0 4.414 0 7.358 0C274.119 347.222 274.331 347.983 274.753 349.506zM182.527 354.582c-3.213 0-4.817 0-8.027 0 1.025-1.522 1.541-2.285 2.568-3.806 3.095 0 4.644-.002 7.741-.002C183.896 352.295 183.438 353.059 182.527 354.582zM192.931 354.582c-3.21 0-4.815 0-8.025 0 .877-1.522 1.317-2.285 2.195-3.806 3.098 0 4.645 0 7.743 0C194.079 352.296 193.695 353.059 192.931 354.582zM203.337 354.582c-3.212 0-4.817 0-8.029 0 .73-1.522 1.095-2.285 1.825-3.806 3.098 0 4.645 0 7.741 0C204.26 352.296 203.952 353.059 203.337 354.582zM213.74 354.582c-3.212 0-4.818 0-8.03 0 .582-1.522.874-2.285 1.455-3.806 3.098 0 4.647 0 7.743 0C214.442 352.296 214.208 353.059 213.74 354.582zM224.143 354.582c-3.209 0-4.814 0-8.024 0 .432-1.522.652-2.285 1.082-3.806 3.096 0 4.648 0 7.74 0C224.625 352.296 224.464 353.059 224.143 354.582zM234.545 354.582c-3.21 0-4.814 0-8.025 0 .284-1.522.429-2.285.714-3.806 3.095 0 4.644 0 7.741 0C234.803 352.296 234.717 353.059 234.545 354.582zM244.947 354.582c-3.209 0-4.814 0-8.021 0 .136-1.522.204-2.285.34-3.806 3.095 0 4.644 0 7.737 0C244.983 352.296 244.971 353.059 244.947 354.582zM255.358 354.582c-3.212 0-4.818 0-8.028 0-.009-1.522-.016-2.285-.028-3.806 3.096 0 4.647 0 7.74 0C255.169 352.296 255.23 353.059 255.358 354.582zM265.76 354.582c-3.208 0-4.815 0-8.022 0-.161-1.522-.242-2.285-.401-3.806 3.095 0 4.642 0 7.737 0C265.348 352.296 265.487 353.059 265.76 354.582zM276.161 354.582c-3.208 0-4.814 0-8.027 0-.306-1.522-.46-2.285-.769-3.806 3.095 0 4.643 0 7.74 0C275.526 352.296 275.738 353.059 276.161 354.582zM179.485 359.655c-3.363 0-5.047 0-8.409 0 1.026-1.522 1.543-2.283 2.569-3.804 3.249 0 4.873 0 8.12 0C180.855 357.372 180.399 358.133 179.485 359.655zM190.385 359.655c-3.361 0-5.044 0-8.407 0 .88-1.522 1.318-2.283 2.198-3.804 3.247 0 4.871 0 8.122 0C191.533 357.372 191.148 358.133 190.385 359.655zM201.282 359.655c-3.363 0-5.045 0-8.407 0 .73-1.522 1.096-2.283 1.828-3.804 3.244 0 4.87 0 8.119 0C202.207 357.372 201.9 358.133 201.282 359.655zM212.145 359.776c-3.368 0-5.052 0-8.422 0 .604-1.569.902-2.355 1.502-3.924 3.251 0 4.876 0 8.125 0C212.868 357.42 212.628 358.207 212.145 359.776zM277.573 359.655c-20.967 0-41.936 0-62.901 0 .431-1.522.647-2.283 1.081-3.804 20.256 0 40.51 0 60.763 0C276.938 357.372 277.151 358.133 277.573 359.655zM231.078 368.018c15.907 0 31.812 0 47.716 0l-4.018-6.484c-15.366 0-24.536 0-39.9 0L231.078 368.018zM281.864 344.43c-2.906 0-4.36 0-7.264 0-.445-1.522-.664-2.285-1.106-3.808 2.79 0 4.185 0 6.977 0C281.028 342.143 281.304 342.908 281.864 344.43zM283.72 349.506c-3.059 0-4.587 0-7.648 0-.441-1.522-.661-2.284-1.104-3.807 2.943 0 4.416 0 7.362 0C282.884 347.222 283.163 347.983 283.72 349.506zM285.576 354.582c-3.21 0-4.818 0-8.028 0-.443-1.522-.661-2.285-1.104-3.806 3.098 0 4.643 0 7.741 0C284.741 352.296 285.017 353.059 285.576 354.582zM287.432 359.655c-3.363 0-5.046 0-8.409 0-.443-1.522-.664-2.283-1.106-3.804 3.249 0 4.873 0 8.122 0C286.596 357.372 286.875 358.133 287.432 359.655zM290.379 344.43c-2.906 0-4.358 0-7.264 0-.577-1.522-.867-2.285-1.441-3.808 2.79 0 4.186 0 6.978 0C289.341 342.145 289.688 342.908 290.379 344.43zM292.684 349.506c-3.06 0-4.589 0-7.646 0-.577-1.522-.867-2.284-1.441-3.807 2.943 0 4.411 0 7.359 0C291.645 347.221 291.993 347.983 292.684 349.506zM294.986 354.582c-3.212 0-4.817 0-8.027 0-.577-1.522-.866-2.285-1.443-3.806 3.096 0 4.645 0 7.741 0C293.951 352.296 294.294 353.059 294.986 354.582zM297.289 359.655c-3.364 0-5.047 0-8.41 0-.574-1.522-.864-2.283-1.438-3.804 3.246 0 4.873 0 8.12 0C296.253 357.372 296.596 358.133 297.289 359.655zM298.895 344.43c-2.906 0-4.357 0-7.263 0-.711-1.522-1.067-2.285-1.778-3.808 2.792 0 4.186 0 6.979 0C297.658 342.145 298.072 342.908 298.895 344.43zM301.645 349.506c-3.057 0-4.587 0-7.645 0-.711-1.522-1.067-2.285-1.778-3.807 2.945 0 4.416 0 7.361 0C300.407 347.222 300.822 347.983 301.645 349.506zM304.398 354.582c-3.213 0-4.817 0-8.028 0-.711-1.522-1.065-2.285-1.778-3.806 3.098 0 4.647 0 7.743 0C303.158 352.296 303.573 353.059 304.398 354.582zM307.147 359.655c-3.363 0-5.046 0-8.409 0-.71-1.522-1.064-2.283-1.777-3.804 3.249 0 4.873 0 8.123 0C305.908 357.372 306.322 358.133 307.147 359.655zM307.41 344.43c-2.904 0-4.357 0-7.263 0-.844-1.522-1.267-2.285-2.111-3.808 2.789 0 4.183 0 6.975 0C305.974 342.145 306.451 342.908 307.41 344.43zM310.609 349.506c-3.057 0-4.586 0-7.645 0-.844-1.522-1.268-2.284-2.112-3.807 2.942 0 4.416 0 7.359 0C309.17 347.222 309.652 347.983 310.609 349.506zM313.807 354.582c-3.21 0-4.814 0-8.025 0-.845-1.522-1.266-2.285-2.113-3.806 3.096 0 4.645 0 7.741 0C312.37 352.296 312.849 353.059 313.807 354.582zM317.006 359.655c-3.363 0-5.044 0-8.409 0-.844-1.522-1.266-2.283-2.113-3.804 3.249 0 4.874 0 8.124 0C315.566 357.372 316.045 358.133 317.006 359.655zM315.93 344.43c-2.908 0-4.363 0-7.266 0-.981-1.522-1.471-2.285-2.451-3.808 2.792 0 4.188 0 6.98 0C314.287 342.145 314.833 342.908 315.93 344.43zM319.572 349.506c-3.057 0-4.589 0-7.646 0-.98-1.522-1.469-2.284-2.446-3.807 2.942 0 4.414 0 7.359 0C317.933 347.222 318.48 347.983 319.572 349.506zM323.219 354.582c-3.21 0-4.817 0-8.03 0-.978-1.522-1.466-2.285-2.446-3.806 3.098 0 4.645 0 7.743 0C321.581 352.296 322.126 353.059 323.219 354.582zM326.863 359.655c-3.363 0-5.044 0-8.411 0-.978-1.522-1.469-2.283-2.447-3.804 3.251 0 4.876 0 8.125 0C325.223 357.372 325.769 358.133 326.863 359.655zM324.442 344.43c-2.904 0-4.358 0-7.262 0-1.114-1.522-1.669-2.285-2.786-3.808 2.792 0 4.186 0 6.98 0C322.601 342.145 323.214 342.908 324.442 344.43zM328.535 349.506c-3.057 0-4.589 0-7.646 0-1.11-1.522-1.669-2.284-2.781-3.807 2.943 0 4.414 0 7.358 0C326.693 347.222 327.307 347.983 328.535 349.506zM332.628 354.582c-3.21 0-4.815 0-8.027 0-1.114-1.522-1.669-2.285-2.783-3.806 3.096 0 4.645 0 7.741 0C330.787 352.296 331.4 353.059 332.628 354.582zM336.721 359.655c-3.363 0-5.044 0-8.411 0-1.112-1.522-1.669-2.283-2.781-3.804 3.249 0 4.873 0 8.122 0C334.879 357.372 335.491 358.133 336.721 359.655z"/></g><path fill="#0b4870" d="M292.497,328.219h-74.888c0.535-2.174,1.025-3.91,1.455-5.118
							c0.217-0.608,0.521-1.192,0.912-1.744c1.327-1.88,3.599-3.479,6.526-4.831c3.494-1.616,7.916-2.886,12.764-3.893
							c5.151-1.056,10.77-1.817,16.241-2.368c0.37-0.033,0.736-0.072,1.106-0.104c6.085-0.568,11.931-0.88,16.648-1.031
							c6.512-0.225,10.902-0.178,10.902-0.178s0.352,0.561,0.969,1.681C286.577,313.289,289.466,319.11,292.497,328.219z"/><path fill="#ffe3ca" d="M235.13,206.023c-0.142,0.96-0.392,1.849-0.746,2.705l0.212-2.42
						C234.775,206.2,234.954,206.13,235.13,206.023z"/><path fill="#eebea7" d="M274.799,202.43c0,0,0,0,0,0.032c-0.073-0.032-0.144-0.069-0.178-0.069
						C274.693,202.394,274.726,202.43,274.799,202.43z"/><path fill="#f1b99e" d="M351.656,253.497c0,0,4.626-4.288,3.709-7.505c-0.777-2.73,0.396-5.788,0.688-7.057
											c0.396-1.681,0.555-7.138,1.809-6.841c2.123,0.516,1.633,9.227,1.894,11.084c0.262,1.855,5.887-4.358,7.804-4.683
											c1.922-0.332,11.686,9.564,7.336,13.386c-4.35,3.814-10.349,5.362-10.983,6.186c-0.633,0.824-3.614,3.088-3.614,3.088
											L351.656,253.497z"/><path fill="#f1b99e" d="M366.332,239.141c0,0,14.101-10.8,15.642-10.735c1.547,0.062,2.081,0.866,0.803,1.928
											c-1.273,1.065-13.315,10.837-13.315,10.837s18.832-9.984,20.111-10.207c0.742-0.132,1.312,1.296,0.678,1.931
											c-0.63,0.628-18.155,11.654-18.155,11.654s17.599-9.292,18.721-9.16c0.984,0.119,1.685,1.741,0.427,2.519
											c-1.259,0.777-17.108,10.327-17.108,10.327s13.24-5.952,14.121-5.287c0.535,0.412,1.299,1.316-2.16,2.744
											c-3.466,1.43-11.003,5.995-11.003,5.995L366.332,239.141z"/><path fill="#ffbe55" d="M265.656,193.107v0.96c-0.075-0.175-0.144-0.319-0.178-0.497
						c-0.073-0.035-0.073-0.105-0.073-0.144C265.478,193.322,265.548,193.217,265.656,193.107z"/><path fill="#eebea7" d="M255.054 198.944c-.142.033-.323.033-.463.033v-.07C254.731 198.944 254.912 198.944 255.054 198.944zM265.656 193.107v.286c-.075.072-.108.105-.178.177-.391.427-.82.817-1.246 1.21-.179.143-.32.283-.496.426.211-.211.46-.462.677-.675.32-.32.638-.711.992-1.105C265.478 193.322 265.548 193.217 265.656 193.107z"/><path fill="#f4c7b1" d="M273.802,180.835c-1.956,4.341-4.341,8.255-7.046,11.35
									c-0.353,0.426-0.747,0.852-1.101,1.209v-0.286c-0.108,0.109-0.178,0.215-0.251,0.319c-0.354,0.394-0.672,0.785-0.992,1.105
									c-0.217,0.214-0.466,0.464-0.677,0.675c-0.075,0.037-0.143,0.109-0.214,0.179c-0.108,0.106-0.214,0.214-0.323,0.249
									c-0.285,0.249-0.566,0.462-0.889,0.675c-0.39,0.285-0.745,0.533-1.135,0.747c-0.108,0.071-0.215,0.141-0.285,0.179
									c-0.359,0.211-0.711,0.39-1.029,0.531c-0.325,0.179-0.68,0.321-1,0.428l-0.034,0.036c-0.284,0.072-0.499,0.178-0.749,0.249
									c-0.073,0.036-0.14,0.072-0.214,0.072c-0.246,0.07-0.496,0.14-0.747,0.178c-0.069,0-0.105,0.034-0.176,0.034h-0.109
									c-0.176,0.038-0.388,0.073-0.566,0.109c-0.179,0.034-0.392,0.034-0.569,0.034c-0.176,0.037-0.359,0.037-0.501,0.037h-0.034
									c-0.034,0.033-0.07,0.033-0.106,0c-0.142,0-0.323,0-0.463-0.037v0.07c-0.212,0-0.427-0.033-0.674-0.07
									c-0.251-0.034-0.535-0.07-0.786-0.105c-0.142-0.038-0.281-0.038-0.463-0.072c-0.14-0.038-0.284-0.038-0.426-0.108
									c-0.746-0.178-1.455-0.463-2.204-0.855c-0.214-0.104-0.463-0.246-0.677-0.388c-1.173-0.676-2.313-1.637-3.488-2.848
									c-0.423-0.424-0.816-0.924-1.243-1.424c-1.814-2.277-3.626-5.298-5.3-9.14c-0.711-1.603-1.354-3.168-1.922-4.662
									c0.888,1.743-0.661-14.517-0.304-13.946c-4.837-9.25-0.016-1.637,1.696-6.224c10.705,4.517,31.514,12.309,31.514,4.41
									c0,0,0.462,4.803,0.998,9.783c0.426,4.091,0.889,8.327,1.104,9.927C272.416,183.254,272.982,182.364,273.802,180.835z"/><path fill="#eebea7" d="M255.054 198.944c-.142.033-.323.033-.463.033v-.07C254.731 198.944 254.912 198.944 255.054 198.944zM265.656 193.107v.286c-.075.072-.108.105-.178.177-.391.427-.82.817-1.246 1.21-.179.143-.32.283-.496.426.211-.211.46-.462.677-.675.32-.32.638-.711.992-1.105C265.478 193.322 265.548 193.217 265.656 193.107z"/><path fill="#ffbe55" d="M237.407,179.305c-2.848-5.621-7.436-16.363-6.617-26.539c0-0.037,0-0.037,0-0.037
									c-1.279-8.43,9.215-23.621,25.225-22.839c16.007-0.782,26.504,14.409,25.222,22.839v0.037
									c0.495,6.154-0.998,12.486-2.847,17.789c1.174-0.039,2.31,0.104,3.449,0.496c6.37,2.1,9.357,10.389,6.654,18.465
									c-2.667,8.11-10.033,12.947-16.4,10.849c-2.954-0.961-5.196-3.272-6.439-6.298v-0.674c0.354-0.356,0.749-0.783,1.101-1.209
									c2.705-3.095,5.09-7.009,7.046-11.35c-0.82,1.53-1.318,3.41-1.318,3.41c-0.215-1.598-0.747-6.826-1.173-10.917
									c-0.537-4.98-0.998-9.783-0.998-9.783c0,7.9-20.809,0.107-31.514-4.41L237.407,179.305z"/><path fill="#a5735b" d="M265.656,193.107v0.96c0,0.677-0.034,1.495,0,2.42c-1.033,1.28-2.064,2.349-3.131,3.166
									c-0.359,0.285-0.713,0.535-1.067,0.783c-0.284,0.213-0.569,0.388-0.855,0.533h-0.034c-1.636,0.924-3.274,1.387-4.874,1.423
									h-0.82c-0.106,0-0.211,0-0.284-0.036v-3.451c0.14,0.037,0.321,0.037,0.463,0.037c0.036,0.033,0.072,0.033,0.106,0h0.034
									c0.181,0.033,0.324,0.033,0.501,0.033c0.214,0,0.462-0.033,0.675-0.07c0.248-0.034,0.535-0.07,0.785-0.105
									c0.14-0.038,0.281-0.038,0.462-0.072c0.143-0.038,0.284-0.038,0.427-0.108c0.747-0.178,1.457-0.463,2.201-0.855
									c0.217-0.104,0.468-0.246,0.678-0.388c0.781-0.427,1.529-0.999,2.276-1.745c0.109-0.035,0.215-0.143,0.323-0.249
									c0.07-0.07,0.139-0.142,0.214-0.179c0.211-0.211,0.46-0.462,0.677-0.675c0.32-0.32,0.638-0.711,0.992-1.105
									C265.478,193.322,265.548,193.217,265.656,193.107z"/><path fill="#0e538c" d="M254.593,223.595v96.304l16.615-0.71l13.662-0.605l-1.39-16.827l-1.529-18.822
						c-2.206,0.928-4.697,2.029-7.082,3.098c0.641-7.436,0.925-14.266,0.499-19.853c-1.672-20.777-4.268-37.71-6.297-48.774v-0.036
						c0.212-2.134-0.073-4.518-0.569-6.723c-0.069-0.466-0.178-0.924-0.284-1.352c-0.143-0.499-0.247-0.96-0.39-1.423
						c-0.109-0.357-0.215-0.711-0.323-1.066c-0.07-0.249-0.178-0.498-0.246-0.713c-0.357-1.174-0.711-2.064-0.928-2.561h-0.069
						c0.285,1.282,1.281,5.551,2.524,12.273c0,0,0,0,0,0.037c-0.814,3.557-3.414,5.549-6.617,6.654
						c-0.034,0-0.103,0.033-0.143,0.033c-2.202,0.749-4.693,1.032-7.075,1.067C254.844,223.595,254.701,223.632,254.593,223.595z"/><path fill="#2a94f4" d="M292.55,253.554c0.855,1.313,2.062,3.733,3.273,6.473c-0.176,3.024-0.39,4.836-0.39,4.836
								s-1.316,3.451-3.06,8.861c-0.465,1.349-4.943,25.257-5.441,26.824c-0.108,0.284-0.181,0.604-0.285,0.889
								c-1.636,0.816-1.271-0.608-4.119,0.534c-0.85,0.354-1.778,0.71-2.739,1.135c-0.142,0.075-0.318,0.144-0.571,0.25
								c-0.284,0.107-0.568,0.214-0.853,0.356c-1.814,0.783-3.769,1.638-5.654,2.491c0.638-7.436,3.084-34.436,2.656-40.022
								c-1.671-20.777-4.266-37.71-6.295-48.774v-0.036c-0.109-0.533-0.176-1.03-0.284-1.529c0-0.037,0-0.037,0-0.037
								c-1.245-6.722-2.241-10.99-2.527-12.273h9.215v0.073c2.56-0.179,14.645-1.88,22.9,5.982
								c-4.555-1.957-10.591-0.186-12.616,1.061c-0.858,0.498-1.604,1.066-2.246,1.707c-1.067,0.996-1.883,2.135-2.488,3.38
								C275.121,227.938,290.059,249.78,292.55,253.554z"/><path fill="#2a94f4" d="M293.222,328.219h-22.896c0.239-2.918,0.543-5.943,0.88-9.028
								c0.343-3.311,0.752-6.677,1.142-10.061c0.13-1.168,0.265-2.329,0.393-3.494c0,0,0.008,0,0.017-0.008
								c2.781-1.017,6.437-5.743,10.445-7.326c0.095-0.033,0.183-0.072,0.279-0.105c1.143-0.391,2.279,2.775,3.447,2.351
								C287.68,308.498,290.36,318.871,293.222,328.219z"/><path fill="#f4c7b1" d="M254.593,202.358v21.238c0.108,0.037,0.251,0,0.359,0c2.382-0.035,4.873-0.318,7.075-1.067
						c0.041,0,0.109-0.033,0.143-0.033c3.202-1.105,5.802-3.097,6.617-6.654c0-0.037,0-0.037,0-0.037
						c-1.243-6.722-2.238-10.99-2.524-12.273h-0.499v-0.675c0-0.426-0.037-0.818-0.037-1.21c-0.034-1.281-0.034-2.49-0.069-3.665
						v-1.493c-1.031,1.28-2.064,2.349-3.13,3.166c-0.357,0.321-0.713,0.569-1.065,0.783c-0.287,0.213-0.571,0.388-0.855,0.533
						h-0.034c-1.746,0.997-3.453,1.423-5.16,1.423C255.128,202.394,254.844,202.394,254.593,202.358z"/><path fill="#2a94f4" d="M356.657,249.012l0.823,1.465l0.025,0.028l6.428,11.363l0.993,1.749
							c0,0-1.948,0.785-5.013,2.082c-2.79,1.179-6.494,2.728-10.508,4.466c-1.106,0.491-2.209,0.977-3.354,1.46
							c-7.807,3.463-16.025,7.16-20.14,9.526c-8.977,5.127-16.447,6.918-20.998,6.824c-4.527-0.12-14.456-26.918-16.007-33.347
							c-1.572-6.401-7.381-18.196-11.543-29.427c-1.761-4.772-1.252-8.983,0.256-12.326c2.006-4.532,5.788-7.461,8.123-7.929
							c0.962-0.215,1.897-0.307,2.808-0.275c1.455,0.006,2.828,0.285,4.118,0.784c12.634,4.923,16.546,31.097,17.286,35.555
							c0.272,1.547,1.031,4.141,2.009,6.973c2.167,6.625,5.322,14.62,5.322,14.62c6.344-2.734,8.963-3.515,11.38-4.208
							c1.755-0.513,3.41-0.931,6.272-2.031c0.863-0.32,1.786-0.693,2.778-1.032c2.249-0.821,4.823-1.711,7.297-2.547
							C351.051,250.767,356.657,249.012,356.657,249.012z"/><path fill="#a5735b" d="M255.695,198.907v3.451c-0.106,0.036-0.176,0.036-0.284,0.036h-0.821
									c-1.602-0.036-3.24-0.499-4.876-1.423h-0.034c-0.284-0.145-0.568-0.321-0.855-0.533c-0.353-0.248-0.706-0.498-1.065-0.783
									c-1.067-0.817-2.1-1.887-3.131-3.166c0.034-1.387,0-2.562,0-3.38c0.427,0.5,0.82,0.999,1.243,1.424
									c1.175,1.211,2.315,2.173,3.488,2.848c0.214,0.142,0.463,0.285,0.677,0.388c0.749,0.392,1.459,0.677,2.204,0.855
									c0.142,0.07,0.285,0.07,0.426,0.108c0.183,0.034,0.321,0.034,0.463,0.072c0.251,0.035,0.535,0.071,0.786,0.105
									c0.246,0.037,0.462,0.07,0.674,0.07c0.14,0,0.321,0,0.463-0.033c0.036,0.033,0.072,0.033,0.106,0h0.034
									C255.336,198.944,255.518,198.944,255.695,198.907z"/><path fill="#0e538c" d="M255.695,223.595v96.304l-16.615-0.71l-13.661-0.605l1.388-16.827l1.529-18.822
						c2.206,0.928,4.697,2.029,7.082,3.098c-0.643-7.436-0.923-14.266-0.498-19.853c1.671-20.777,4.266-37.71,6.294-48.774v-0.036
						c-0.21-2.134,0.075-4.518,0.571-6.723c0.069-0.466,0.178-0.924,0.286-1.352c0.143-0.499,0.245-0.96,0.388-1.423
						c0.109-0.357,0.215-0.711,0.323-1.066c0.07-0.249,0.178-0.498,0.248-0.713c0.359-1.174,0.711-2.064,0.926-2.561h0.069
						c-0.284,1.282-1.282,5.551-2.525,12.273c0,0,0,0,0,0.037c0.816,3.557,3.416,5.549,6.62,6.654c0.034,0,0.104,0.033,0.142,0.033
						c2.202,0.749,4.695,1.032,7.075,1.067C255.443,223.595,255.589,223.632,255.695,223.595z"/><g><path fill="#2a94f4" d="M244.024 203.531c-.284 1.282-1.282 5.551-2.525 12.273 0 0 0 0 0 .037-.106.498-.178.996-.285 1.529v.036c-2.028 11.064-4.623 27.997-6.294 48.774-.426 5.586-.145 12.417.498 19.853-2.385-1.069-4.876-2.17-7.082-3.098-.959-.427-1.887-.781-2.737-1.135-2.85-1.14-4.344-1.959-5.979-2.778-.104-.284-.178-.602-.285-.887-.498-1.566-.959-3.061-1.421-4.41-1.745-5.409-3.06-8.861-3.06-8.861s-.212-1.812-.39-4.836c1.209-2.741 2.419-5.16 3.274-6.473 2.488-3.774 17.428-25.616 11.522-37.819-.604-1.245-1.421-2.384-2.488-3.38-.641-.641-1.39-1.209-2.244-1.707-2.023-1.246-10.002.164-14.555 2.121 8.254-7.865 22.279-9.343 24.84-9.164v-.073H244.024zM239.959 328.219h-22.897c.688-2.246 1.367-4.55 2-6.862 2.039-7.326 3.726-14.764 4.294-20.809 1.167.424 2.312.816 3.455 1.207 4.126 1.455 7.894 2.848 10.733 3.881.256 2.333.535 4.676.808 6.997.248 2.205.502 4.397.727 6.557C239.416 322.276 239.719 325.301 239.959 328.219z"/></g><path fill="#f4c7b1" d="M255.695,202.358v21.238c-0.106,0.037-0.251,0-0.359,0c-2.38-0.035-4.873-0.318-7.075-1.067
						c-0.037,0-0.107-0.033-0.142-0.033c-3.204-1.105-5.804-3.097-6.62-6.654c0-0.037,0-0.037,0-0.037
						c1.243-6.722,2.242-10.99,2.525-12.273h0.499v-0.675c0-0.426,0.037-0.818,0.037-1.21c0.034-1.281,0.034-2.49,0.069-3.665
						v-1.493c1.031,1.28,2.064,2.349,3.131,3.166c0.359,0.321,0.713,0.569,1.065,0.783c0.287,0.213,0.571,0.388,0.855,0.533h0.034
						c1.744,0.997,3.457,1.423,5.16,1.423C255.16,202.394,255.443,202.394,255.695,202.358z"/><g><path fill="#eea886" d="M265.512,296.527c-0.249,1.565-1.28,2.739-1.28,2.739s0.604,2.062-0.782,3.414
									c0,0,0.462,1.956-1.352,3.237c0,0,0.427,1.922-0.998,2.741c0,0-3.096,0.392-4.23,0.179
									c-1.426-0.321-8.078-1.85-13.768-3.274l3.023-12.702v-0.034c1.317-0.889,2.56-1.71,2.953-1.958
									c0.961-0.571,4.235-0.391,7.61,0.675c3.277,1.033,6.941,2.491,7.971,3.06C265.194,294.889,265.724,294.998,265.512,296.527z
									"/><path fill="#2a94f4" d="M246.517,291.189l-0.393,1.638v0.034l-3.023,12.702l-0.462,1.958c0,0-1.959-0.747-5.093-1.887
							c-2.844-1.032-6.612-2.418-10.739-3.876c-1.139-0.393-2.28-0.785-3.449-1.209c-8.077-2.778-16.617-5.659-21.242-6.726
							c-10.068-2.349-16.759-6.119-20.031-9.284c-3.235-3.166,7.721-29.563,10.961-35.327c3.202-5.764,6.969-18.357,11.561-29.42
							c1.956-4.698,5.191-7.436,8.573-8.858c4.556-1.958,9.323-1.532,11.346-0.286c0.855,0.498,1.604,1.066,2.244,1.707
							c1.067,0.996,1.884,2.135,2.488,3.38c5.906,12.203-9.034,34.045-11.522,37.819c-0.855,1.313-2.065,3.733-3.274,6.473
							c-2.917,6.33-6.048,14.335-6.048,14.335c6.509,2.315,8.963,3.522,11.204,4.659c1.635,0.819,3.129,1.638,5.979,2.778
							c0.85,0.354,1.778,0.708,2.737,1.135c2.206,0.928,4.697,2.029,7.082,3.098C241.213,288.664,246.517,291.189,246.517,291.189z"/></g><g><path fill="#0e538c" d="M280.037,170.744l-0.306-13.94c-0.045-2.326,0-4.63-0.332-6.787
							c-0.328-2.188-0.922-4.33-1.842-6.313c-1.808-3.975-4.842-7.33-8.652-9.458c-3.806-2.161-8.233-3.143-12.648-3.125
							c-4.414-0.018-8.85,0.964-12.641,3.125c-3.818,2.128-6.851,5.483-8.665,9.458c-0.914,1.982-1.507,4.125-1.836,6.313
							c-0.331,2.18-0.298,4.431-0.329,6.787l-0.312,13.94h-1.747l-0.299-13.94c-0.028-2.286-0.133-4.693,0.175-7.124
							c0.304-2.408,0.895-4.81,1.872-7.069c1.892-4.557,5.427-8.42,9.704-10.863c4.283-2.481,9.228-3.599,14.079-3.624
							c4.854,0.025,9.794,1.143,14.076,3.624c4.28,2.443,7.81,6.306,9.699,10.863c0.976,2.259,1.574,4.661,1.884,7.069
							c0.304,2.45,0.203,4.815,0.176,7.124l-0.303,13.94H280.037z"/><path fill="#0b4870" d="M232.123,178.313c-3.137,0-3.928-2.249-3.928-5.027v-9.013c0-2.775,0.791-5.029,3.928-5.029
								h0.75v19.069H232.123z"/><rect width="1.621" height="19.069" x="232.873" y="159.245" fill="#2a94f4"/><path fill="#0b4870" d="M280.868,178.313c3.14,0,3.937-2.249,3.937-5.027v-9.013c0-2.775-0.797-5.029-3.937-5.029
								h-0.75v19.069H280.868z"/><rect width="1.622" height="19.069" x="278.496" y="159.245" fill="#2a94f4"/><path fill="#cce9ff" d="M257.42,195.69v-1.749c7.236,0,21.017-10.283,21.017-15.628h1.745
							C280.182,185.079,264.938,195.69,257.42,195.69z"/><path fill="#0b4870" d="M258.582,197.258h-2.33c-1.933,0-3.497-1.09-3.497-2.443c0-1.348,1.564-2.437,3.497-2.437h2.33
							c1.931,0,3.496,1.09,3.496,2.437C262.077,196.168,260.513,197.258,258.582,197.258z"/></g><g><path fill="#2a94f4" d="M195.023,101.446v13.813l-0.083,18.751l-0.111,22.648l-0.07,16.708l-16.645-16.772l-5.079-0.018
					l-67.353-0.315c-11.379-2.22-19.966-12.234-19.966-24.241v-30.574c0-12.683,9.59-23.158,21.908-24.537l67.512,0.311
					C186.47,79.457,195.023,89.452,195.023,101.446z"/><path fill="#cce9ff" d="M174.026 102.109c0 2.007-1.624 3.63-3.624 3.63h-62.085c-2.003 0-3.628-1.623-3.628-3.63l0 0c0-2.004 1.625-3.627 3.628-3.627h62.085C172.402 98.482 174.026 100.105 174.026 102.109L174.026 102.109zM174.026 115.617c0 1.998-1.624 3.631-3.624 3.631h-62.085c-2.003 0-3.628-1.633-3.628-3.631l0 0c0-2.006 1.625-3.63 3.628-3.63h62.085C172.402 111.986 174.026 113.611 174.026 115.617L174.026 115.617zM155.059 129.124c0 1.99-1.63 3.62-3.634 3.62h-43.112c-2.003 0-3.616-1.63-3.616-3.62 0-1.003.395-1.905 1.055-2.564.653-.658 1.561-1.072 2.561-1.072h43.112C153.429 125.488 155.059 127.117 155.059 129.124z" opacity=".8"/></g></svg>